<?xml version="1.0" encoding="UTF-8"?>
<!DOCTYPE svg PUBLIC "-//W3C//DTD SVG 1.1//EN" "http://www.w3.org/Graphics/SVG/1.1/DTD/svg11.dtd">
<!-- Creator: CorelDRAW X7 -->
<svg xmlns="http://www.w3.org/2000/svg" xml:space="preserve" width="30.4291mm" height="34.1718mm" version="1.1" style="shape-rendering:geometricPrecision; text-rendering:geometricPrecision; image-rendering:optimizeQuality; fill-rule:evenodd; clip-rule:evenodd"
viewBox="0 0 1412 1586"
 xmlns:xlink="http://www.w3.org/1999/xlink">
 <defs>
  <style type="text/css">
   <![CDATA[
    .fil0 {fill:#42494E;fill-rule:nonzero}
    .fil1 {fill:#72B399;fill-rule:nonzero}
   ]]>
  </style>
 </defs>
 <g id="Layer_x0020_1">
  <metadata id="CorelCorpID_0Corel-Layer"/>
  <path class="fil0" d="M207 1586c-12,1 -22,-8 -23,-19 -1,-11 8,-21 19,-22l378 -35c15,-24 54,-82 113,-78 59,-4 97,54 112,78l379 35c11,1 19,11 18,22 -1,11 -11,20 -22,19l-386 -36 -2 0c-10,-1 -14,-7 -20,-17l0 0c-11,-17 -41,-64 -77,-61 -1,1 -3,1 -4,0 -37,-3 -66,44 -77,61 -6,10 -10,16 -20,17l-388 36z"/>
  <path class="fil0" d="M333 310c-8,-8 -9,-21 -1,-29 8,-8 21,-8 29,-1 94,93 183,282 249,499 66,221 107,471 104,673 0,12 -9,21 -20,20 -12,0 -21,-9 -20,-20 3,-199 -38,-444 -104,-661 -63,-211 -148,-394 -237,-481z"/>
  <path class="fil0" d="M1143 583c8,-3 16,0 20,7 4,7 0,16 -7,20 -72,35 -144,79 -209,133 -56,48 -106,103 -146,166 -33,53 -59,119 -75,206 -17,87 -23,197 -17,336 0,9 -6,15 -14,16 -9,0 -15,-6 -16,-14 -6,-142 1,-254 18,-344 17,-91 45,-160 79,-215 42,-67 94,-124 152,-173 67,-56 141,-102 215,-138z"/>
  <path class="fil1" d="M434 1132c13,-2 26,8 27,21 2,14 -8,26 -22,27 -39,5 -82,7 -124,2 -43,-5 -83,-17 -114,-43 -16,-12 -47,-57 -82,-107 -42,-60 -88,-126 -110,-143 -10,-9 -12,-24 -4,-35 7,-8 17,-11 26,-8 50,12 115,13 176,15 72,1 140,2 185,20 24,10 47,29 68,52 23,26 44,57 60,88 6,12 1,27 -11,33 -12,6 -26,1 -33,-11 -14,-27 -32,-55 -52,-77 -16,-18 -34,-32 -51,-39 -37,-15 -100,-16 -167,-17 -39,-1 -80,-2 -118,-6 22,30 47,66 71,100 33,47 63,89 73,98 22,18 54,28 89,32 37,4 77,2 113,-2z"/>
  <path class="fil1" d="M477 651c13,5 20,19 15,31 -4,13 -18,20 -31,15 -78,-27 -136,-54 -179,-83l0 0c-45,-31 -74,-64 -93,-102 -34,-71 -28,-155 -20,-271 5,-62 10,-133 10,-216 0,-14 11,-25 24,-25 7,0 14,3 18,8 7,5 34,22 71,45 88,56 229,146 304,212 7,6 15,14 21,23 33,42 50,104 53,162 2,60 -11,118 -41,152 -5,5 -10,10 -15,14 -11,8 -26,6 -34,-5 -8,-11 -6,-26 4,-34 3,-2 5,-5 8,-7 21,-24 31,-70 29,-118 -2,-49 -17,-100 -43,-134 -4,-6 -9,-12 -15,-17 -72,-64 -211,-151 -297,-206 -15,-9 -28,-17 -39,-25 -1,66 -5,123 -9,174 -8,109 -14,188 15,247 15,30 39,57 76,82l0 0c40,27 94,52 168,78z"/>
  <path class="fil1" d="M807 811c0,14 -11,25 -24,25 -14,0 -25,-11 -25,-25 0,-73 17,-134 45,-186 32,-60 79,-105 133,-141 119,-79 228,-86 319,-92 48,-3 90,-6 123,-20 13,-5 27,1 32,13 2,5 2,10 2,14 -7,37 -11,68 -14,97 -18,135 -29,218 -162,340 -17,16 -35,30 -52,43 -63,48 -131,82 -191,96 -66,15 -123,7 -160,-33 -3,-3 -5,-6 -7,-9 -8,-11 -6,-26 5,-34 10,-8 26,-6 34,5 1,2 3,3 4,5 23,25 64,30 113,18 53,-12 114,-43 172,-87 17,-13 34,-26 49,-40 120,-110 130,-186 146,-310 3,-19 5,-39 8,-60 -30,6 -63,8 -99,11 -84,5 -186,12 -295,84 -47,31 -89,72 -117,123 -24,45 -39,99 -39,163z"/>
  <path class="fil0" d="M324 1048c-8,-3 -12,-11 -9,-19 2,-7 11,-11 18,-9 126,41 218,89 279,157 61,68 92,155 97,275 0,8 -6,14 -15,15 -8,0 -14,-6 -15,-14 -4,-112 -32,-194 -89,-256 -57,-64 -144,-109 -266,-149z"/>
 </g>
</svg>
