<?xml version="1.0" encoding="UTF-8"?>
<!DOCTYPE svg PUBLIC "-//W3C//DTD SVG 1.1//EN" "http://www.w3.org/Graphics/SVG/1.1/DTD/svg11.dtd">
<!-- Creator: CorelDRAW X7 -->
<svg xmlns="http://www.w3.org/2000/svg" xml:space="preserve" width="49.3487mm" height="38.8275mm" version="1.1" style="shape-rendering:geometricPrecision; text-rendering:geometricPrecision; image-rendering:optimizeQuality; fill-rule:evenodd; clip-rule:evenodd"
viewBox="0 0 5554 4370"
 xmlns:xlink="http://www.w3.org/1999/xlink">
 <defs>
  <style type="text/css">
   <![CDATA[
    .fil0 {fill:#FEFEFE}
    .fil1 {fill:#42494E;fill-rule:nonzero}
    .fil2 {fill:#72B399;fill-rule:nonzero}
   ]]>
  </style>
 </defs>
 <g id="Layer_x0020_1">
  <metadata id="CorelCorpID_0Corel-Layer"/>
  <path class="fil0" d="M4353 3812l0 -2138c0,-218 -179,-340 -396,-340l-3244 0c-218,0 -396,122 -396,340l0 2138 4036 0z"/>
  <path class="fil1" d="M4303 3763l0 -2089c0,-89 -35,-159 -91,-207 -63,-54 -154,-83 -255,-83l-3244 0c-102,0 -193,29 -256,83 -56,48 -90,118 -90,207l0 2089 3936 0zm99 -2089l0 2138c0,28 -22,50 -49,50l-4036 0c-28,0 -50,-22 -50,-50l0 -2138c0,-121 48,-216 126,-282 81,-70 195,-107 320,-107l3244 0c124,0 238,37 319,107 78,66 126,162 126,282z"/>
  <path class="fil0" d="M4184 3250l0 -1353 0 -54c0,-217 -180,-340 -396,-340l-2907 0c-216,0 -395,122 -395,340l0 54 0 1353 0 54c0,217 179,339 395,339l2907 0c216,0 396,-123 396,-339l0 -54z"/>
  <path class="fil2" d="M4174 3250l0 -1407c0,-101 -40,-181 -105,-237 -71,-61 -171,-93 -281,-93l-2907 0c-110,0 -210,32 -280,93 -65,55 -105,135 -105,237l0 1461c0,101 40,181 105,237 70,60 170,93 280,93l2907 0c110,0 210,-33 281,-93 65,-56 105,-136 105,-237l0 -54zm20 -1353l0 1407c0,107 -43,192 -113,252 -74,63 -178,97 -293,97l-2907 0c-114,0 -219,-33 -293,-97 -69,-59 -112,-144 -112,-252l0 -1461c0,-108 43,-193 112,-252 74,-64 179,-98 293,-98l2907 0c114,0 219,34 293,98 70,59 113,144 113,252l0 54z"/>
  <path class="fil0" d="M3789 144c633,-262 1359,39 1621,672 262,633 -38,1359 -672,1621 -380,158 -794,112 -1120,-87 -274,165 -614,266 -754,322 48,-93 283,-311 459,-572 -84,-98 -154,-210 -206,-335 -262,-633 39,-1358 672,-1621z"/>
  <path class="fil1" d="M3770 99c329,-137 682,-127 987,0 305,126 562,369 699,698 136,329 126,682 0,987 -127,305 -369,562 -699,699 -194,80 -396,110 -592,94 -193,-15 -380,-73 -547,-169 -208,121 -446,205 -608,263 -53,19 -98,35 -127,47 -26,10 -55,-2 -65,-27 -5,-14 -4,-29 2,-41 24,-47 84,-114 158,-200 85,-96 191,-216 283,-347 -35,-43 -67,-88 -96,-136 -36,-57 -67,-118 -93,-183 -137,-329 -127,-682 0,-987 126,-305 369,-562 698,-698zm950 91c-282,-117 -608,-126 -912,0 -304,126 -528,363 -645,645 -117,281 -126,608 0,912 25,59 53,115 86,168 33,54 69,104 109,150 16,17 19,43 6,62 -100,149 -218,283 -311,389l-45 51c165,-59 392,-144 584,-259 15,-10 35,-10 51,0 160,97 342,156 529,171 182,14 369,-14 548,-88l0 0c304,-126 528,-363 644,-644 117,-282 126,-608 0,-912l0 0c-126,-304 -363,-528 -644,-645z"/>
  <path class="fil2" d="M3600 914c-33,0 -59,-27 -59,-60 0,-33 26,-60 59,-60l574 0c33,0 60,27 60,60 0,33 -27,60 -60,60l-574 0z"/>
  <path class="fil2" d="M3600 1216c-33,0 -59,-26 -59,-59 0,-33 26,-60 59,-60l1435 0c33,0 60,27 60,60 0,33 -27,59 -60,59l-1435 0z"/>
  <path class="fil2" d="M3600 1822c-33,0 -59,-27 -59,-60 0,-33 26,-59 59,-59l574 0c33,0 60,26 60,59 0,33 -27,60 -60,60l-574 0z"/>
  <path class="fil2" d="M3600 1519c-33,0 -59,-27 -59,-60 0,-32 26,-59 59,-59l957 0c33,0 60,27 60,59 0,33 -27,60 -60,60l-957 0z"/>
  <path class="fil1" d="M4669 3812l0 113c0,122 -50,233 -130,314 -81,81 -193,131 -315,131l-3779 0c-122,0 -233,-50 -314,-131 -81,-80 -131,-192 -131,-314l0 -113c0,-27 22,-49 50,-49l4570 0c27,0 49,22 49,49zm-99 113l0 -63 -4471 0 0 63c0,95 39,181 102,244 63,63 149,102 244,102l3779 0c95,0 182,-39 244,-102 63,-63 102,-149 102,-244z"/>
  <path class="fil2" d="M2121 4126c-33,0 -59,-27 -59,-60 0,-33 26,-59 59,-59l427 0c33,0 60,26 60,59 0,33 -27,60 -60,60l-427 0z"/>
 </g>
</svg>
