<?xml version="1.0" encoding="UTF-8"?>
<!DOCTYPE svg PUBLIC "-//W3C//DTD SVG 1.1//EN" "http://www.w3.org/Graphics/SVG/1.1/DTD/svg11.dtd">
<!-- Creator: CorelDRAW X7 -->
<svg xmlns="http://www.w3.org/2000/svg" xml:space="preserve" width="32.7251mm" height="33.4682mm" version="1.1" style="shape-rendering:geometricPrecision; text-rendering:geometricPrecision; image-rendering:optimizeQuality; fill-rule:evenodd; clip-rule:evenodd"
viewBox="0 0 722 739"
 xmlns:xlink="http://www.w3.org/1999/xlink">
 <defs>
  <style type="text/css">
   <![CDATA[
    .fil1 {fill:#FEFEFE}
    .fil0 {fill:#42494E}
    .fil3 {fill:#72B399}
    .fil2 {fill:#72B399;fill-rule:nonzero}
   ]]>
  </style>
 </defs>
 <g id="Layer_x0020_1">
  <metadata id="CorelCorpID_0Corel-Layer"/>
  <path class="fil0" d="M159 565c1,-32 17,-92 44,-118 8,-8 22,-21 35,-22 10,6 34,32 43,42 21,20 28,19 1,50 -20,23 -55,36 -86,42 -10,2 -27,6 -37,6zm203 -15c1,-7 3,-14 4,-22 4,-26 3,-17 45,-43l71 -45c-9,38 -2,61 -40,76 -14,5 -27,12 -40,18 -7,3 -34,16 -40,16zm-189 -189c2,-9 28,-66 34,-80 6,-13 13,-24 26,-30 9,-4 39,-8 50,-9 -4,10 -16,24 -22,35 -7,10 -14,22 -22,34 -26,40 -17,41 -38,45 -8,2 -20,3 -28,5zm171 138c-11,-9 -20,-19 -30,-29l-90 -90c3,-14 51,-87 64,-107 11,-17 23,-33 36,-50 36,-48 79,-93 130,-128 23,-16 91,-53 119,-55 9,40 36,77 71,95 18,10 31,13 37,16 0,0 1,1 1,1 0,0 1,0 1,1 -4,31 -37,90 -55,117 -34,52 -79,91 -127,129 -18,14 -136,95 -157,100zm249 -465c0,0 1,0 1,0l24 -6c37,-5 44,-8 85,-6 -3,18 0,40 -3,59 -3,14 -7,34 -10,50 -22,1 -59,-27 -74,-47l-8 -11c-7,-12 -14,-24 -15,-39zm-396 344c0,0 1,0 1,1 1,7 11,16 17,21l6 8c-30,20 -47,33 -61,69 -15,37 -20,66 -23,110 41,0 77,-8 110,-22 26,-10 48,-27 63,-51 4,-6 2,-6 7,-10 9,5 13,14 25,22 0,0 1,1 1,1 1,0 1,0 2,1 -2,22 -19,62 25,42l59 -26c66,-29 61,-33 73,-97 6,-29 -2,-22 20,-39 32,-24 63,-53 89,-82 68,-76 113,-187 111,-295l-1 -28c-8,-1 -28,-4 -35,-3 -72,0 -139,22 -195,49 -63,30 -123,84 -165,138 -4,5 -9,11 -14,17 -5,7 -6,12 -16,14 -77,16 -85,4 -114,69 -6,13 -13,29 -19,42 -4,11 -18,35 -15,45 4,17 36,5 49,4z"/>
  <path class="fil1" d="M518 123c-20,0 -40,10 -51,21 -59,61 10,150 80,119 74,-33 48,-141 -29,-140z"/>
  <path class="fil2" d="M518 124c-9,0 -18,3 -27,6 -9,4 -17,9 -23,15 -17,18 -23,39 -21,58 1,12 6,24 13,34 7,10 17,18 27,23 17,9 38,11 59,1 21,-9 34,-25 40,-43 3,-12 4,-25 1,-37 -3,-12 -8,-24 -17,-33 -12,-14 -30,-24 -52,-24zm-28 3c9,-4 18,-6 28,-6 24,0 43,9 55,24 9,10 15,22 18,35 3,13 2,27 -2,39 -5,19 -19,36 -41,46 -22,10 -44,8 -62,-1 -12,-6 -22,-14 -29,-25 -8,-10 -12,-23 -14,-36 -2,-20 4,-42 23,-60 5,-7 14,-12 24,-16z"/>
  <path class="fil3" d="M334 686c13,2 16,-7 31,-21 9,-9 17,-17 27,-27l39 -39c10,-11 4,-10 5,-18 -15,-5 -15,-2 -34,18 -9,10 -18,19 -28,28l-41 41c-7,7 -4,11 1,18z"/>
  <path class="fil3" d="M56 460c-5,2 -53,50 -54,53 -6,9 3,20 12,15l45 -44c2,-2 7,-6 9,-9 6,-8 -2,-20 -12,-15z"/>
  <path class="fil3" d="M48 397c13,2 16,-5 31,-20 7,-7 27,-23 12,-31 -8,-5 -19,9 -29,19 -4,4 -9,8 -13,13 -7,7 -6,11 -1,19z"/>
  <path class="fil3" d="M222 688c-5,3 -4,3 -8,6 -7,8 -30,27 -30,36 0,8 9,11 17,7 0,-1 5,-6 6,-7 3,-3 4,-4 7,-6 5,-5 8,-9 13,-14 4,-3 11,-8 10,-14 0,-8 -8,-11 -15,-8z"/>
 </g>
</svg>
